<svg xmlns="http://www.w3.org/2000/svg" xmlns:xlink="http://www.w3.org/1999/xlink" viewBox="0 0 49.854 79.826"><defs><linearGradient id="b" x1="24.927" y1=".021" x2="24.927" y2="79.826" xlink:href="#a"><stop offset="0" stop-color="#e28747"/><stop offset=".43" stop-color="#df8445"/><stop offset=".66" stop-color="#d87c40"/><stop offset=".842" stop-color="#cc6f38"/><stop offset=".999" stop-color="#bb5c2d"/></linearGradient><linearGradient id="c" x1="24.529" y1=".021" x2="24.529" y2="75.44" xlink:href="#a"><stop offset="0" stop-color="#ee5a29"/><stop offset=".999" stop-color="#ab2927"/></linearGradient><linearGradient id="d" x1="23.806" y1="71.061" x2="23.806" y2="0" xlink:href="#a"><stop offset="0" stop-color="#53131d"/><stop offset="1" stop-color="#761a25"/></linearGradient><linearGradient id="f" x1="23.237" y1="70.966" x2="23.237" y2="-.205" xlink:href="#a"><stop offset="0" stop-color="#53131d"/><stop offset="1" stop-color="#761a25"/></linearGradient><linearGradient id="g" x1="23.337" y1="64.724" x2="23.337" y2="3.201" xlink:href="#a"><stop offset="0" stop-color="#f6c829"/><stop offset=".212" stop-color="#e0a126"/><stop offset=".334" stop-color="#d79125"/><stop offset=".35" stop-color="#e8ae2b"/><stop offset=".374" stop-color="#ffd735"/><stop offset=".756" stop-color="#fff"/><stop offset=".945" stop-color="#fbde86"/><stop offset=".999" stop-color="#fad562"/></linearGradient><linearGradient id="h" x1="23.337" y1="64.724" x2="23.337" y2="3.201" xlink:href="#a"><stop offset="0" stop-color="#fff"/><stop offset=".076" stop-color="#fffcf3"/><stop offset=".211" stop-color="#fff4d4"/><stop offset=".389" stop-color="#ffe7a3"/><stop offset=".441" stop-color="#ffe494"/><stop offset="1" stop-color="#fff"/></linearGradient><linearGradient id="a" gradientUnits="userSpaceOnUse"/><path id="e" d="M43.495 62.309v-10.65l-14.789-.004h-4.413l3.4-2.815c9.85-8.149 15.056-17.028 15.056-25.677 0-5.999-1.833-11.038-5.3-14.572-3.459-3.526-8.388-5.39-14.253-5.39-11.886 0-19.88 8.039-19.909 20.012h13.817c.026-4.121 2.468-6.885 6.093-6.885 3.45 0 5.767 2.749 5.767 6.84 0 5.461-3.436 11.331-10.213 17.445-5.263 4.749-11.367 8.609-15.572 11.017v13.093h40.316v-2.414z"/></defs><path d="M49.059 55.952l-.159.874h-.159v-.596h-.159v-.596h-.159v-.596h-.159v-.596h-.159v-.596h-.159v-.596h-.159v-.596h-.159v-.596h-.159v-.596h-.159v-.596h-.159v-.596h-.159v-.596h-.159v-.596h-.159v-.596h-1.156c2.365-4.416 3.589-8.916 3.589-13.394 0-2.688-.343-5.209-.99-7.539-.05-.201-.104-.399-.159-.597a22.63 22.63 0 00-.159-.596c-.05-.2-.104-.398-.159-.596-.05-.201-.104-.399-.159-.597-.05-.2-.104-.398-.159-.596-.05-.201-.104-.399-.159-.597a22.63 22.63 0 00-.159-.596c-.05-.2-.104-.398-.159-.596-.05-.201-.104-.399-.159-.597-.05-.2-.104-.398-.159-.596-.05-.201-.104-.399-.159-.597-.05-.2-.104-.398-.159-.596-.05-.201-.104-.399-.159-.597-.05-.2-.104-.398-.159-.596-.05-.2-.104-.398-.159-.596-.05-.201-.104-.399-.159-.597-.05-.2-.104-.398-.159-.596-.05-.201-.104-.399-.159-.597-.05-.201-.104-.399-.159-.596-.969-3.857-2.775-7.201-5.378-9.855C35.647 2.214 29.934.021 23.196.021 9.635.021.141 9.554.108 23.205L.1 26.393h.16v.596h.159v.596h.159v.596h.159v.596h.159v.596h.152l-.197.218 2.428 8.724h13.269c-5.04 4.532-10.906 8.24-14.95 10.557l-1.599.916v18.115h.159v.596h.159v.596h.159v.596h.159v.596h.159v.596h.159v.596h.159v.596h.159v.596h.159v.596h.159v.596h.159v.596l.173.979 1.258 4.386h46.674V59.401l-.795-3.451z" fill="url(#b)"/><path d="M46.674 48.48h-4.74c4.2-5.819 6.379-11.851 6.379-17.846 0-3.429-.539-6.598-1.587-9.427-.043-.123-.074-.253-.119-.374s-.074-.252-.119-.373-.074-.253-.119-.374-.074-.252-.119-.373-.074-.252-.119-.374-.074-.253-.119-.374-.074-.252-.119-.373-.074-.253-.119-.374-.074-.252-.119-.373-.074-.253-.119-.374-.074-.252-.119-.373-.074-.253-.119-.374-.074-.252-.119-.373-.074-.252-.119-.374-.074-.253-.119-.374-.074-.252-.119-.373-.074-.253-.119-.374-.074-.252-.119-.373-.074-.253-.119-.374c-1.044-2.972-2.627-5.589-4.742-7.745C35.647 2.214 29.934.021 23.196.021 9.635.021.141 9.554.108 23.205L.1 26.393h.12v.374h.119v.374h.119v.374h.119v.374h.119v.374h.119v.374h.119v.374h.119v.151l-.285.16 1.262 4.574.456-.029h18.426c-1.21 1.431-2.636 2.894-4.293 4.389-5.056 4.562-10.959 8.292-15.022 10.619l-1.599.916v18.115h.119v.374h.119v.374h.119v.374h.119v.374h.119v.374h.119v.374h.119v.374H.95l-.115.543 1.082 4.379 47.138-.065V55.958l-2.385-7.472zM22.667 30.704c.007-1.044.268-3.374 2.414-3.687-.518 1.48-1.325 3.009-2.419 4.582l.006-.895z" fill="url(#c)"/><path d="M46.877 48.459l-9.989-.003c6.489-7.109 9.879-14.652 9.879-22.135 0-1.761-.147-3.451-.427-5.064-.009-.054-.022-.105-.032-.159s-.023-.105-.032-.159-.022-.105-.032-.159-.023-.105-.032-.159-.022-.105-.032-.159l-.032-.159c-.01-.054-.023-.105-.032-.159s-.022-.105-.032-.159l-.032-.158c-.01-.053-.023-.106-.032-.16s-.023-.105-.032-.159-.022-.105-.032-.159l-.032-.159c-.01-.054-.023-.105-.032-.159s-.022-.105-.032-.159-.023-.105-.032-.159-.022-.105-.032-.159l-.032-.159c-.01-.054-.023-.105-.032-.159-.792-4.728-2.761-8.782-5.814-11.894C35.851 2.193 30.137 0 23.399 0 9.838 0 .344 9.533.311 23.184L.106 26.23l.673 3.177 20.323.143.02-3.16c.007-1.12.305-3.725 2.914-3.725.948 0 1.547.439 1.93 1.02-.233 4.387-3.3 9.276-9.141 14.546-5.056 4.562-10.959 8.292-15.022 10.619l-1.599.916-.198 17.975.833 3.32h46.674l.092-20.342-.728-2.26z" fill="url(#d)"/><use xlink:href="#e" fill="#221f20"/><path d="M.006 67.741V49.794l1.546-.886c4.067-2.329 9.978-6.064 15.04-10.633 6.104-5.507 9.198-10.608 9.198-15.163 0-.884-.194-3.767-2.694-3.767-2.703 0-3.012 2.679-3.019 3.831l-.02 3.054H.106l.007-3.081C.147 9.561 9.598.072 23.097.072c6.709 0 12.396 2.182 16.447 6.311 4.043 4.122 6.18 9.905 6.18 16.725 0 8.646-4.54 17.374-13.176 25.42l13.922.003v19.211H.006z" fill="url(#f)"/><use xlink:href="#e" fill="url(#g)"/><path d="M43.495 62.309v-10.65l-14.789-.004h-4.413l3.4-2.815c9.85-8.149 15.056-17.028 15.056-25.677 0-5.999-1.833-11.038-5.3-14.572-3.459-3.526-8.388-5.39-14.253-5.39-11.886 0-19.88 8.039-19.909 20.012h13.817c.026-4.121 2.468-6.885 6.093-6.885 3.45 0 5.767 2.749 5.767 6.84 0 5.461-3.436 11.331-10.213 17.445-5.263 4.749-11.367 8.609-15.572 11.017v13.093h40.316v-2.414z" fill="none" stroke="url(#h)" stroke-miterlimit="10" stroke-width="1.197"/></svg>