<svg xmlns="http://www.w3.org/2000/svg" viewBox="0 0 68 95"><defs><clipPath id="clip-path" transform="translate(-.04 -.07)"><path d="M.1.1h67.87v94.8H.1z" class="cls-1"/></clipPath><clipPath id="clip-path-2" transform="translate(-.04 -.07)"><path d="M0 0h68.08v95H0z" class="cls-1"/></clipPath><style>.cls-1{fill:none}</style></defs><g id="Layer_2"><rect id="BG" width="68" height="95" rx="4" ry="4" style="fill:#fff"/><g style="clip-path:url(#clip-path-2)"><path id="Layer_21" d="m4.92 7.04.05-.28.05-.2.07-.17.08-.2.24-.3.23-.18.23-.15.18-.05.08-.05.1-.02.3-.04h.18l.28.05.1.02.08.05.17.05.24.15.23.2.12.14.1.15.1.2.07.17.06.2.04.27v.2l-.04.3-.06.18-.07.16-.1.2-.17.2-.05.1-.05.02-.5.43-.36.3-.3.27-.9.82L5 11l-.2.23-.27.35-.25.4-.12.27-.22.6-.07.23-.04.26v.9h5.6V11.9H8.5v1.3H4.95l.02-.15.04-.17.1-.22.13-.25.18-.32.3-.4.33-.4.93-.85.4-.33.92-.78.1-.1.32-.36.27-.4.13-.26.1-.3.1-.46v-.62l-.1-.45-.16-.43-.15-.27-.1-.13-.28-.36-.35-.3-.25-.16-.12-.07-.5-.2-.38-.06h-.46l-.3.03-.3.07-.4.16-.16.08-.22.16-.36.3-.3.35-.14.26-.08.15-.16.43-.1.45v.49h1l-.02-.08v-.2zm58.15 80.78-.04.28-.05.2-.07.17-.08.17-.24.3-.23.2-.07.04-.06.05-.1.06-.18.04-.08.04-.1.03-.3.05h-.18l-.3-.04-.08-.02-.08-.04-.17-.05-.24-.16-.23-.2-.12-.15-.1-.16-.1-.17-.08-.18-.05-.2-.04-.28v-.2l.04-.3.05-.18.08-.17.05-.1.04-.1.18-.2.05-.1.55-.44.36-.3.3-.27.92-.82.44-.5.47-.52.27-.34.25-.4.12-.27.22-.6.07-.22.04-.26v-.9h-5.6v2.35l.95-.02v-1.3h3.53l-.02.16-.06.2-.1.22-.3.57-.3.42-.17.2-.17.17-.93.86-.4.33-.9.78-.1.1-.33.36-.28.4-.12.26-.1.3-.1.45v.63l.1.45.16.42.15.28.1.12.28.37.35.3.25.15.12.07.5.18.38.07.15.02h.3l.3-.05.3-.06.4-.16.16-.08.23-.16.35-.3.3-.36.14-.24.08-.16.16-.42.08-.45.02-.15v-.35h-1v.29zM40.72 76.47l-.54-.58-.47-.53-.9-1.1-.9-1.16-.48-.6-.44-.6-.87-1.26-.37-.56-.4-.68-.4-.62-.4-.67-.53-.94-.93 1.62-.4.62-.4.68-.38.56L31 71.9l-.44.6-.93 1.17-.46.6-.9 1.1-1 1.07-.02.03.54.57.47.52.9 1.12.9 1.14.48.6.44.6.87 1.27.37.56.4.67.4.63.4.67.53.94.54-.94.4-.67.4-.63.4-.67.37-.57.88-1.27.44-.6.93-1.17.92-1.15.44-.54.48-.52.54-.57zm0-58.07-.54-.58-.47-.53-.9-1.12-.9-1.14-.48-.6-.44-.62-.87-1.25-.37-.57-.4-.68-.4-.62-.4-.67-.53-.95-.54.95-.4.67-.4.62-.4.68-.37.57-.88 1.25-.44.6-.93 1.17-.46.58-.9 1.1-.48.54-.54.57.54.56.47.53.9 1.1.9 1.14.48.6.44.6.87 1.27.37.6.4.65.4.63.4.67.53.95.54-.95.4-.67.4-.63.4-.66.37-.6.47-.64.4-.6.45-.6.93-1.17.92-1.18.44-.53 1-1.08.02-.03zM64.16 76l-.4-.45-.38-.45-.18-.24-.38-.47-.17-.26-.17-.24-.2-.26-.15-.23-.14-.27-.34-.52-.22-.38-.22.4-.33.5-.16.3-.15.22-.2.26-.34.5-.38.46-.18.24-.37.45-.4.44.4.43.37.45.18.25.38.46.53.75.14.23.15.27.32.52.22.4.22-.4.33-.52.13-.27.16-.23.18-.27.17-.24.17-.25.38-.47.18-.25.37-.45.4-.44zM9.3 18.87l-.43-.44-.37-.45-.18-.25-.38-.47-.17-.24-.17-.25-.2-.26-.14-.22L7.1 16l-.32-.52-.22-.4-.22.4L6 16l-.13.28-.16.23-.18.27-.16.25-.18.24-.38.47-.18.25-.37.45-.4.44.4.43.37.45.18.25.38.47.34.5.2.25.15.23.14.27.34.53.22.4.22-.4.33-.53.16-.27.15-.23.2-.26.34-.5.38-.46.18-.25.37-.45.42-.43z" style="fill:#e13a3e;fill-rule:evenodd"/></g></g></svg>