<svg xmlns="http://www.w3.org/2000/svg" viewBox="0 0 68 95"><defs><clipPath id="clip-path" transform="translate(-.04 -.07)"><path d="M.1.1h67.87v94.8H.1z" class="cls-1"/></clipPath><clipPath id="clip-path-2" transform="translate(-.04 -.07)"><path d="M0 0h68.08v95H0z" class="cls-1"/></clipPath><style>.cls-1{fill:none}</style></defs><g id="Layer_2"><rect id="BG" width="68" height="95" rx="4" ry="4" style="fill:#fff"/><g style="clip-path:url(#clip-path-2)"><path id="Layer_16" d="m4.9 8.5.26-.3.4-.3.12-.05.13-.04.12-.05.1-.04h.13l.23-.04h.37l.23.05.1.05.12.06.13.05.1.05.3.2.1.1.08.1.1.08.2.2.26.5.15.38.08.3.05.28.03.3v.3l-.03.3-.08.43-.08.27-.1.26-.2.35-.16.2-.2.2-.07.1-.1.08-.2.15-.1.07-.24.1-.12.05-.34.08-.13.02H6.4l-.1-.02-.36-.08-.24-.1-.1-.05-.1-.07-.1-.08-.22-.15-.26-.3-.23-.32-.05-.12-.07-.1-.06-.14-.1-.16-.92.4.1.17.16.36.2.33.24.28.12.13.1.13.15.13.15.1.3.2.15.1.16.06.34.13.17.04.2.03.15.04h.7l.5-.1.5-.2.14-.1.3-.2.15-.1.13-.14.13-.13.15-.13.1-.15.1-.14.2-.33.26-.52.07-.14.1-.4.05-.2.05-.37.02-.22v-.38l-.03-.22-.05-.38-.04-.2-.17-.56-.15-.35-.2-.36-.3-.43-.4-.37-.14-.1-.3-.2-.16-.1L7.7 7l-.18-.06-.33-.12-.35-.06h-.7l-.34.06-.5.18-.15.06-.2.14.24-1.77h3.66v-1H4.32l-.56 3.96.9.8.02-.2.05-.15.04-.1.12-.2zm58.2 77.85-.26.32-.4.28-.13.06-.1.05-.12.06-.1.04-.13.02-.23.04h-.36l-.23-.06-.1-.03-.12-.05-.13-.04-.1-.05-.3-.2-.1-.08-.08-.1-.1-.1-.2-.2-.26-.48-.16-.4-.06-.3-.06-.28-.02-.3v-.3l.02-.3.1-.43.07-.28.1-.26.2-.36.17-.2.2-.2.07-.1.1-.07.2-.15.1-.07.24-.1.12-.04.34-.08h.44l.36.08.23.1.13.05.1.08.1.08.2.15.26.3.23.33.05.12.07.1.06.15.1.16.92-.4-.1-.17-.16-.37-.2-.33-.24-.3-.12-.1-.1-.14-.15-.13-.15-.1-.3-.2-.15-.1-.17-.06-.32-.14-.17-.04-.18-.04-.17-.04h-.7l-.5.1-.5.2-.14.1-.3.2-.15.1-.13.14-.13.13-.14.1-.1.17-.1.13-.22.33-.26.52-.05.15-.1.4-.05.2-.05.37-.02.2v.4l.03.2.05.4.04.2.16.55.17.35.2.34.3.45.4.38.14.1.3.2.15.1.16.06.18.04.33.12.35.06h.7l.34-.06.48-.17.17-.08.2-.14-.25 1.76h-3.66v1.03h4.54l.57-3.97-.9-.8-.04.2-.03.15-.04.1-.12.2zM10.28 20.44l.1.5.1.43.34.83.14.22.17.22.43.48.46.4.34.23.28.14.3.08.34.1.44.04h.5l.2-.03.23-.06.42-.15.4-.24.34-.26.3-.3.24-.35.2-.37.17-.34.13-.18.1-.1.2.1.17.12.05.08v.1l.02.12-.02.17-.08.42-.17.56-.32.73-.54 1.07-.73 1.15.42-.06.64-.07.5-.04h2.49l.5.05.63.07.42.06-.73-1.15-.55-1.07-.32-.73-.17-.56-.08-.42-.02-.17.02-.12v-.1l.05-.08.17-.12.2-.1.1.1.12.18.17.34.2.37.23.36.3.3.33.26.4.23.42.14.22.05.22.02h.5l.43-.05.35-.1.3-.08.27-.15.34-.24.47-.38.43-.48.18-.22.13-.22.35-.83.12-.44.08-.5.03-.5v-.5l-.1-.42-.1-.38-.17-.4-.22-.43-.3-.47-.38-.4-.2-.18-.36-.26-.15-.08-.33-.1-.3-.07h-.69l-.38.07-.35.12-.4.2-.48.33-.54.4-.6-.85.43-.33.4-.35.33-.35.24-.4.18-.4.1-.42.06-.42-.02-.44-.08-.47-.15-.44-.2-.37-.26-.33-.32-.36-.36-.3-.36-.22-.37-.15-.4-.14-.75-.18-.42-.05h-.17l-.42.05-.75.18-.4.14-.36.15-.36.2-.36.32-.32.36-.27.33-.2.38-.15.45-.08.47-.02.44.05.42.1.42.1.2.1.2.24.4.34.35.4.34.4.32-.58.85-.54-.4-.5-.34-.38-.2-.35-.1-.38-.08h-.69l-.3.07-.32.1-.15.07-.37.25-.2.18-.37.4-.3.46-.24.4-.17.42-.1.4-.1.42v.48l.03.52zm31.36 0 .1.5.1.43.34.83.14.22.17.22.42.48.46.4.34.23.28.14.3.08.34.1.45.04h.47l.22-.03.2-.06.43-.15.4-.24.34-.26.3-.3.23-.35.2-.37.17-.34.12-.18.1-.1.2.1.16.12.05.08v.1l.03.12-.02.17-.07.42-.17.56-.32.73-.54 1.07-.73 1.15.4-.06.65-.07.5-.04h2.52l.5.05.64.07.4.06-.73-1.15-.53-1.07-.33-.73-.18-.56-.08-.42-.02-.17.02-.12v-.1l.05-.08.16-.12.2-.1.1.1.12.18.17.34.2.37.24.36.28.3.35.26.4.23.4.14.23.05.22.02h.5l.43-.05.36-.1.3-.08.27-.15.34-.24.46-.38.44-.48.17-.22.13-.22.34-.83.13-.44.08-.5.05-.5-.02-.5-.08-.42-.1-.38-.18-.4-.23-.43-.3-.47-.38-.4-.2-.18-.35-.26-.15-.08-.32-.1-.3-.07h-.7l-.38.07-.35.12-.38.2-.5.33-.53.4-.6-.85.42-.33.4-.35.33-.35.25-.4.2-.4.1-.42.04-.42v-.44l-.1-.47-.15-.44-.2-.37-.27-.33-.32-.36-.34-.3-.36-.22-.37-.15-.4-.14-.75-.18-.42-.05h-.17l-.43.05-.76.18-.38.14-.37.15-.35.2-.36.32-.32.36-.27.33-.2.38-.14.45-.07.47-.02.44.06.42.1.42.1.2.1.2.24.4.34.35.4.34.4.32-.58.85-.54-.4-.5-.34-.37-.2-.36-.1-.38-.08h-.7l-.3.07-.32.1-.15.07-.36.25-.2.18-.38.4-.3.46-.24.4-.17.42-.1.4-.07.42-.02.48.04.52zM25.96 45.38l-.03.52.02.47.08.44.1.4.17.4.23.43.3.46.38.4.2.18.37.25.15.07.32.1.3.07h.7l.37-.07.36-.12.4-.2.48-.33.54-.4.6.85-.43.33-.4.34-.33.36-.25.38-.1.22-.1.2-.1.42-.04.42.02.44.08.47.16.44.17.4.27.32.32.35.35.33.37.2.37.15.4.14.75.17.4.05h.18l.42-.05.76-.18.4-.15.36-.15.36-.2.35-.33.32-.35.27-.33.2-.4.14-.43.08-.47.02-.44-.05-.42-.1-.42-.18-.4-.25-.4-.34-.35-.38-.34-.43-.33.6-.85.53.4.5.34.38.18.36.12.36.07h.7l.3-.07.32-.1.16-.07.35-.25.2-.2.37-.4.3-.45.24-.42.16-.4.1-.4.1-.43v-.47l-.03-.52-.1-.5-.1-.43-.34-.83-.15-.22-.16-.2-.45-.5-.46-.4-.34-.23-.3-.13-.28-.1-.36-.1-.43-.04h-.5l-.22.03-.22.05-.42.16-.4.22-.35.26-.3.3-.23.34-.2.38-.17.33-.12.2-.1.1-.2-.1-.17-.13-.04-.08v-.1l-.02-.12.02-.17.08-.42.17-.56.33-.73.54-1.08.73-1.16-.4.06-.65.07-.5.04-.75.03h-1l-.77-.02-.5-.03-.63-.07-.4-.06.72 1.15.54 1.07.32.72.17.55.1.42v.39l-.07.08-.16.12-.2.1-.1-.1-.13-.2-.18-.32-.2-.38-.23-.34-.3-.3-.36-.26-.4-.22-.4-.16-.23-.05-.2-.03h-.5l-.43.05-.36.1-.28.1-.28.12-.34.24-.45.4-.45.5-.16.2-.14.22-.34.83-.1.44-.1.48zM10.28 74.42l-.03.52v.47l.1.45.1.4.17.4.23.42.3.46.38.4.2.2.36.24.14.07.32.1.3.07.34.02h.35l.38-.08.35-.12.4-.2.48-.33.54-.4.6.83-.43.34-.4.34-.33.36-.25.4-.1.2-.1.2-.1.42-.05.42.02.44.08.47.15.45.2.37.26.34.32.35.36.34.35.2.36.15.4.13.75.18.43.06h.17l.42-.05.76-.17.4-.14.36-.16.35-.2.35-.33.32-.34.27-.34.2-.37.14-.44.08-.46.02-.44-.05-.42-.1-.42-.2-.4-.24-.4-.35-.35-.4-.33-.4-.34.58-.84.54.4.5.33.38.2.35.1.38.08.35.02h.34l.3-.08.32-.1.14-.07.36-.25.2-.2.37-.4.3-.45.24-.42.18-.4.1-.4.1-.44v-.46l-.03-.52-.08-.5-.12-.43-.34-.84-.12-.22-.18-.22-.43-.5-.46-.37-.33-.24-.28-.13-.3-.1-.35-.08-.44-.06h-.48l-.22.04-.22.04-.42.15-.4.23-.34.27-.3.28-.23.35-.2.37-.18.34-.12.2-.1.1-.2-.1-.17-.12-.05-.08v-.1l-.02-.12.02-.17.08-.42.17-.55.32-.72.54-1.07.72-1.15-.4.06-.65.07-.5.04-.75.03h-1l-.77-.03-.5-.03-.63-.06-.4-.06.72 1.15.54 1.08.32.73.17.55.08.43.02.18-.02.12v.1l-.05.08-.17.12-.2.1-.1-.1-.12-.2-.16-.33-.2-.37-.24-.35-.3-.28-.34-.27-.4-.23-.4-.15-.23-.04-.22-.04h-.48l-.44.05-.35.07-.3.1-.27.14-.34.25-.46.38-.43.5-.17.2-.14.23-.34.83-.1.43-.1.5zm31.36 0-.03.52.03.47.08.45.1.4.18.4.23.42.32.46.37.4.2.2.35.24.15.07.32.1.3.07.34.02h.36l.37-.08.35-.12.38-.2.5-.33.53-.4.6.83-.43.34-.4.34-.33.36-.25.4-.1.2-.08.2-.1.42-.06.42.03.44.08.47.16.45.2.37.26.34.32.35.36.34.35.2.37.15.4.13.75.18.42.06h.16l.42-.05.76-.17.4-.14.36-.16.36-.2.35-.33.33-.34.28-.34.2-.37.14-.44.1-.46V81l-.05-.42-.1-.42-.2-.4-.25-.4-.34-.35-.38-.33-.42-.34.6-.84.53.4.5.33.38.2.36.1.38.08.35.02h.33l.3-.08.32-.1.16-.07.36-.25.2-.2.38-.4.3-.45.23-.42.17-.4.1-.4.1-.44v-.46l-.03-.52-.07-.5-.12-.43-.33-.84-.13-.22-.17-.22-.44-.5-.46-.37-.34-.24-.28-.13-.3-.1-.34-.08-.43-.06h-.5l-.2.04-.23.04-.42.15-.4.23-.34.27-.3.28-.23.35-.2.37-.17.34-.12.2-.1.1-.2-.1-.17-.12-.06-.08v-.1l-.02-.12.02-.17.08-.42.17-.55.32-.72.53-1.07.73-1.15-.4.06-.65.07-.5.04-.75.03h-1l-.77-.03-.48-.03-.64-.06-.4-.06.72 1.15.54 1.08.32.73.17.55.08.43.03.18-.02.12v.1l-.04.08-.17.12-.2.1-.1-.1-.13-.2-.16-.33-.2-.37-.23-.35-.3-.28-.34-.27-.4-.23-.42-.15-.2-.04-.23-.04h-.48l-.46.05-.35.07-.3.1-.28.14-.34.25-.46.38-.43.5-.18.2-.14.23-.34.83-.1.43-.1.5zM3.33 19.7l.03.2.06.17.12.33.05.1.24.28.2.15.13.1.1.05.13.04.3.06h.2l.1-.02.26-.08.3-.2.1-.1.1-.15.2-.37.04-.04.08.04.1.08v.17l-.1.4-.13.3-.22.43-.2.3-.1.15.16-.03.45-.04h1.02l.2.03.42.05-.1-.16-.2-.3-.22-.43-.12-.3-.1-.4v-.16l.08-.08.1-.04.03.04.2.37.08.14.12.12.3.18.25.08.1.02h.2l.3-.06.13-.04.1-.05.33-.25.25-.3.06-.08.05-.18.12-.33.02-.2v-.41l-.03-.17-.1-.3-.22-.36-.15-.16-.24-.18-.05-.03-.25-.07h-.27l-.15.03-.3.12-.4.3-.25-.34.17-.12.28-.28.12-.15.06-.16.08-.35-.04-.37-.14-.33-.1-.14-.28-.26-.14-.08-.3-.1-.3-.08-.2-.03-.22.03-.3.07-.32.1-.14.1-.27.26-.1.15-.15.33-.04.37.07.34.08.15.1.15.15.14.3.27-.22.35-.4-.3-.3-.12-.15-.03h-.28l-.25.07-.06.03-.23.18-.15.16-.22.36-.06.16-.08.33v.4zM58.2 75.3v.4l.07.34.05.16.23.36.14.16.23.18.05.03.26.07h.28l.15-.03.3-.12.4-.3.24.34-.3.26-.14.14-.1.15-.08.16-.07.35.05.37.14.33.1.14.27.26.14.08.32.1.3.08.24.03.17-.03.3-.07.32-.1.14-.1.26-.26.1-.15.15-.33.05-.37-.07-.34-.07-.15-.1-.15-.3-.28-.15-.13.23-.36.42.3.3.13.14.03h.28l.26-.07.05-.03.24-.18.15-.16.2-.36.1-.3.05-.2v-.4l-.04-.2-.1-.32-.08-.17-.05-.1-.25-.28-.33-.25-.1-.05-.13-.04-.32-.06h-.2l-.1.02-.25.08-.3.2-.1.1-.1.15-.2.37-.04.04-.1-.04-.1-.08v-.17l.12-.4.13-.3.22-.43.2-.3.08-.15-.4.05-.2.02H60.9l-.46-.05-.15-.03.1.16.2.3.2.43.14.3.1.4v.16l-.1.08-.07.04-.04-.04-.2-.37-.1-.14-.1-.12-.3-.18-.26-.08-.1-.02h-.2l-.3.06-.12.04-.1.05-.15.1-.2.15-.24.28-.05.1-.12.33-.05.18-.03.2z" style="fill:#231f20;fill-rule:evenodd"/></g></g></svg>