<svg xmlns="http://www.w3.org/2000/svg" viewBox="0 0 68 95"><defs><clipPath id="clip-path" transform="translate(-.04 -.07)"><path d="M.1.1h67.87v94.8H.1z" class="cls-1"/></clipPath><clipPath id="clip-path-2" transform="translate(-.04 -.07)"><path d="M0 0h68.08v95H0z" class="cls-1"/></clipPath><style>.cls-1{fill:none}</style></defs><g id="Layer_2"><rect id="BG" width="68" height="95" rx="4" ry="4" style="fill:#fff"/><g style="clip-path:url(#clip-path-2)"><path id="Layer_22" d="m4.9 8.5.26-.3.1-.1.3-.2.12-.05.12-.04.1-.05.12-.04.36-.04h.37l.22.05.12.05.1.06.15.05.4.26.1.1.08.1.1.08.2.2.26.5.15.38.08.3.05.28.03.3v.3l-.03.3-.08.43-.08.27-.1.26-.22.35-.15.2-.2.2-.07.1-.1.08-.1.07-.2.15-.25.1-.1.05-.34.08H6.3l-.37-.08-.22-.1-.1-.05-.2-.15-.1-.07-.12-.08-.08-.1-.18-.2-.23-.32-.1-.18-.06-.1-.05-.14-.1-.16-.92.4.1.17.16.36.1.16.1.15.24.3.12.1.1.15.14.13.16.1.3.2.15.1.16.06.34.13.16.04.2.03.15.04h.69l.5-.1.5-.2.15-.1.3-.2.15-.1.13-.14.13-.14.14-.12.1-.15.1-.15.2-.32.27-.52.07-.14.15-.6.05-.37v-.82l-.05-.38-.05-.2-.16-.56-.15-.35-.2-.36-.3-.43-.4-.38-.14-.1-.3-.2-.16-.08-.14-.07-.2-.05-.32-.13-.34-.06-.17-.02h-.34l-.18.02-.35.05-.5.17-.15.07-.2.14.24-1.77h3.65v-1H4.3l-.55 3.96.9.8.03-.2.04-.15.04-.1.13-.2zm58.2 77.85-.04.06-.23.27-.4.28-.12.06-.1.05-.12.06-.1.04-.36.06h-.36l-.23-.06-.1-.03-.12-.05-.13-.04-.1-.05-.1-.06-.2-.15-.1-.08-.08-.12-.1-.08-.2-.2-.27-.48-.15-.4-.06-.3-.06-.28-.03-.32v-.27l.03-.3.08-.44.08-.28.1-.26.1-.1.12-.26.15-.2.2-.2.06-.1.1-.07.22-.15.1-.07.34-.14.34-.08.12-.02h.24l.1.02.36.08.34.15.1.08.1.08.2.15.1.1.1.1.15.2.15.22.06.13.07.1.06.15.08.16.93-.4-.08-.17-.17-.37-.1-.16-.1-.17-.23-.3-.13-.1-.12-.14-.13-.13-.15-.1-.3-.2-.16-.1-.16-.06-.33-.14-.16-.04-.2-.04-.15-.04h-.7l-.5.1-.5.2-.15.1-.3.2-.15.1-.14.14-.1.13-.15.1-.1.17-.1.13-.2.33-.27.52-.1.34-.1.4-.06.37v.8l.06.4.04.2.16.54.17.37.2.34.3.45.4.38.14.1.3.2.15.1.15.06.18.04.33.12.35.06h.7l.34-.06.48-.17.16-.08.2-.14-.24 1.76h-3.66v1.03h4.54l.56-3.97-.9-.8-.03.2-.03.15-.04.1-.12.2zM18.32 27.37l.94-.04.9.06.92.07.3.05-.9-1.44-.37-.7-.34-.75-.3-.72-.32-.95-.06-.25-.02-.2v-.14l.02-.1.02-.02h.06l.06.08.14.28.23.4.12.18.18.2.2.16.25.17.54.26.3.1.3.03.3.03h.3l.56-.07.5-.14.45-.2.46-.3.4-.35.28-.33.12-.2.2-.46.14-.63.08-.7-.04-.74-.16-.86-.13-.5-.3-.9-.32-.7-.3-.6-.4-.63-2-2.8-.7-.9-.82-.98-.88-.95-.9-.92-.9.92-.9.95-.82 1-.7.9-2 2.8-.4.62-.3.6-.32.7-.3.9-.13.5-.16.87-.04.76.07.7.15.62.2.47.12.2.28.32.4.35.45.3.45.2.48.14.58.07h.3l.6-.08.3-.1.54-.24.24-.16.2-.17.2-.2.13-.18.22-.4.14-.28.06-.07h.08l.02.1v.15l-.02.2-.05.25-.3.96-.33.73-.35.74-.38.7-.9 1.45.3-.05.93-.08.9-.07.95.04zm31.36 0 .94-.04.9.06.92.07.3.05-.9-1.44-.37-.7-.35-.75-.3-.72-.33-.95-.05-.25-.03-.34.03-.1v-.02h.08l.05.08.14.28.23.4.14.18.16.2.2.16.25.17.55.26.3.1.3.03.3.03h.3l.58-.07.5-.14.44-.2.45-.3.4-.35.28-.33.12-.2.2-.46.15-.63.07-.7-.04-.74-.16-.86-.13-.5-.3-.9-.3-.7-.32-.6-.37-.63-2-2.8-.7-.9-.83-.98-.9-.95-.9-.92-.9.92-.9.95-.8 1-.72.9-2 2.8-.38.62-.3.6-.33.7-.3.9-.13.5-.15.87-.03.76.07.7.14.62.2.47.1.2.3.32.4.35.45.3.44.2.5.14.56.07h.3l.3-.04.3-.05.3-.1.54-.24.24-.16.2-.17.2-.2.13-.18.23-.4.14-.28.06-.07h.06l.03.1v.15l-.02.2-.04.25-.3.96-.32.73-.36.74-.38.7-.9 1.45.3-.05.93-.08.9-.07.95.04zM34 38.45l-.94.03-.9-.05-.93-.08-.3-.06.9 1.43.37.72.35.73.32.73.3.97.06.24.02.22v.14l-.02.1v.02l-.1-.02-.04-.06-.15-.28-.22-.4-.14-.18-.2-.2-.2-.16-.24-.18-.54-.24-.3-.1-.3-.04-.3-.03h-.3l-.57.06-.5.13-.44.2-.44.3-.4.35-.28.33-.13.2-.2.46-.15.63-.06.7.03.74.16.88.14.5.3.9.3.7.32.6.37.62 2 2.8.7.9.83 1 .9.95.9.92.9-.92.9-.95.8-1 .72-.9 2-2.8.4-.62.3-.6.3-.7.3-.9.15-.5.16-.87.02-.74-.06-.7-.17-.62-.2-.47-.12-.2-.26-.32-.4-.35-.45-.3-.47-.2-.48-.14-.58-.07h-.3l-.3.02-.28.05-.33.1-.54.23-.24.18-.22.17-.18.2-.13.18-.23.4-.14.27-.05.06-.07.02-.02-.02v-.46l.05-.23.33-.96.3-.72.36-.73.37-.72.9-1.44-.3.05-.93.08-.9.05-.94-.03zM18.32 67.5h-.63l-.32.03-.9-.06-.93-.1-.3-.04.9 1.45.37.7.35.74.32.73.3.96.05.25.02.2v.15l-.02.1-.02.02h-.07l-.05-.1-.13-.26-.22-.38-.14-.2-.17-.2-.2-.16-.25-.18-.54-.24-.3-.1-.6-.08h-.3l-.58.07-.48.13-.45.2-.46.3-.4.36-.27.3-.13.2-.2.48-.14.63-.07.7.03.75.15.87.14.5.28.9.32.7.3.6.4.62 2 2.8.7.9.82 1 .9.94.9.92.9-.92.9-.94.8-1 .72-.9 2-2.8.38-.62.3-.6.33-.7.3-.9.13-.5.16-.87.04-.75-.08-.7-.15-.62-.2-.47-.1-.2-.3-.3-.4-.36-.44-.3-.45-.2-.5-.15-.56-.08h-.3l-.6.1-.3.08-.55.24-.24.18-.2.17-.18.18-.13.2-.24.38-.14.27-.06.08-.06.02h-.02l-.02-.12v-.14l.02-.2.06-.25.3-.95.32-.73.35-.73.4-.72.88-1.45-.3.05-.92.1-.9.05-.32-.03h-.62zm31.36 0h-.63l-.3.03-.92-.06-.92-.1-.3-.04.9 1.45.38.7.36.74.3.73.32.96.05.25.03.2v.15l-.02.1v.02h-.07l-.06-.1-.14-.26-.22-.38-.13-.2-.18-.2-.22-.16-.24-.18-.54-.24-.3-.1-.6-.08h-.3l-.57.07-.5.13-.44.2-.46.3-.4.36-.3.3-.1.2-.2.48-.15.63-.08.7.03.75.16.87.15.5.3.9.3.7.32.6.38.62 2 2.8.72.9.8 1 .9.94.9.92.9-.92.9-.94.82-1 .7-.9 2-2.8.38-.62.32-.6.3-.7.3-.9.14-.5.16-.87.04-.75-.07-.7-.16-.62-.18-.47-.12-.2-.28-.3-.4-.36-.45-.3-.45-.2-.5-.15-.57-.08h-.3l-.6.1-.3.08-.54.24-.23.18-.2.17-.18.18-.15.2-.23.38-.14.27-.05.08-.07.02-.04-.12.03-.35.04-.24.3-.95.32-.73.35-.73.38-.72.9-1.45-.3.05-.93.1-.9.05-.3-.03h-.64zM6.56 22.38h.37l.7.04.13.03-.35-.56-.15-.3-.25-.58-.13-.36-.03-.18v-.06l.02-.05h.02l.04.04.13.27.12.15.18.14.22.1.23.05.24.02.23-.03.2-.06.17-.08.17-.13.17-.13.1-.12.06-.1.07-.17.02-.1.05-.13.02-.27-.02-.14v-.17l-.07-.35-.15-.53-.12-.27-.13-.25-.15-.25-.8-1.1-.27-.35-.33-.4-.33-.37-.36-.35-.36.35-.34.37-.33.4-.27.36-.8 1.1-.14.24-.13.25-.13.27-.17.53-.07.34v.31l.02.27.04.12.02.1.06.2.06.08.1.12.16.13.18.13.18.08.2.05.22.02h.23l.24-.07.22-.1.18-.13.13-.15.13-.26.03-.02h.02l.02.04-.02.14v.1l-.13.36-.26.58-.15.3-.35.55.12-.03.72-.05h.36zm54.88 50.09h-.25l-.13.02-.72-.07-.12-.02.36.57.14.28.26.58.12.37v.1l.03.13-.02.06-.02-.03-.02-.03-.14-.25-.12-.16-.18-.14-.1-.04-.12-.06-.23-.05-.24-.02-.23.03-.2.06-.18.08-.17.12-.15.14-.1.12-.06.08-.07.18-.03.13-.04.12-.03.26v.33l.08.35.17.54.24.52.14.25.8 1.1.27.35.34.4.34.37.36.36.35-.36.33-.37.33-.4.28-.35.8-1.1.14-.24.13-.25.13-.26.16-.53.06-.34v-.34l-.02-.27-.04-.13-.02-.13-.07-.18-.05-.08-.1-.12-.16-.14-.18-.12-.18-.08-.2-.06-.23-.03-.22.02-.23.05-.1.06-.12.04-.18.14-.12.15-.14.24-.03.03-.03.02-.02-.07.03-.23.12-.37.26-.58.15-.28.36-.56-.12.03-.7.06-.14-.03h-.24z" style="fill:#231f20;fill-rule:evenodd"/></g></g></svg>