<svg width="50" height="49" viewBox="0 0 50 49" xmlns="http://www.w3.org/2000/svg"><defs><linearGradient x1="50%" y1="100%" x2="50%" y2="0%" id="s"><stop stop-color="#351202" offset=".036%"></stop><stop stop-color="#5F3C0A" offset="56.936%"></stop><stop stop-color="#774F27" offset="96.459%"></stop></linearGradient><linearGradient x1="50%" y1="100%" x2="50%" y2="0%" id="c"><stop stop-color="#E9C868" offset="0%"></stop><stop stop-color="#DAB255" offset="28.023%"></stop><stop stop-color="#C69339" offset="74.215%"></stop><stop stop-color="#BE872F" offset="100%"></stop></linearGradient><linearGradient x1="50%" y1="100%" x2="50%" y2="0%" id="d"><stop stop-color="#BE872F" offset="0%"></stop><stop stop-color="#C69339" offset="25.785%"></stop><stop stop-color="#DAB255" offset="71.977%"></stop><stop stop-color="#E9C868" offset="100%"></stop></linearGradient><linearGradient x1="0%" y1="50%" x2="100%" y2="50%" id="e"><stop stop-color="#BE872F" offset="0%"></stop><stop stop-color="#C69339" offset="25.785%"></stop><stop stop-color="#DAB255" offset="71.977%"></stop><stop stop-color="#E9C868" offset="100%"></stop></linearGradient><linearGradient x1="0%" y1="50%" x2="100%" y2="50%" id="f"><stop stop-color="#E9C868" offset="0%"></stop><stop stop-color="#DAB255" offset="28.023%"></stop><stop stop-color="#C69339" offset="74.215%"></stop><stop stop-color="#BE872F" offset="100%"></stop></linearGradient></defs><g fill-rule="nonzero" fill="none"><g transform="translate(1.385 1.381)"><path d="M22.763.262c-9.088 0-17.281 5.474-20.759 13.870-3.477 8.396-1.555 18.060 4.870 24.487 6.426 6.426 16.090 8.348 24.487 4.870 8.396-3.477 13.870-11.671 13.870-20.759C45.218 10.328 35.166.276 22.763.262z" fill="url(#s)"></path><circle fill="#000" cx="22.762" cy="22.732" r="20.021"></circle><circle fill="#F7EDD4" cx="22.762" cy="22.732" r="20.434"></circle><path d="M22.762 7.573c-6.131 0-11.658 3.693-14.005 9.357-2.346 5.664-1.049 12.184 3.286 16.52 4.335 4.335 10.855 5.632 16.52 3.286 5.664-2.346 9.357-7.873 9.357-14.005-.009-8.368-6.790-15.149-15.158-15.158z" fill="#2B2525"></path><circle fill="#5CC7F2" cx="22.762" cy="22.732" r="11.057"></circle><circle fill="#CE6784" cx="22.762" cy="22.732" r="6.704"></circle><circle fill="#F7EE84" cx="22.762" cy="22.732" r="2.361"></circle></g><path fill="#000" opacity=".4" d="M24.440 35.083h1.947v12.963h-1.947zM24.440 2.126h1.947v12.963h-1.947z"></path><path fill="url(#c)" d="M.231 32.957h1.947v12.963H.231z" transform="translate(22.910 1.152)"></path><path fill="url(#d)" d="M.231 0h1.947v12.963H.231z" transform="translate(22.910 1.152)"></path><g><path fill="#000" opacity=".4" d="M35.411 24.112h12.963v1.947h-12.963zM2.454 24.112h12.963v1.947H2.454z"></path><path fill="url(#e)" d="M32.957 0h12.963v1.947h-12.963z" transform="translate(1.155 23.138)"></path><path fill="url(#f)" d="M0 0h12.963v1.947H0z" transform="translate(1.155 23.138)"></path></g></g></svg>
