<svg width="51" height="52" viewBox="0 0 51 52" xmlns="http://www.w3.org/2000/svg"><defs><linearGradient x1="82.115%" y1="50.305%" x2="17.873%" y2="49.771%" id="a"><stop stop-color="#F7DA69" offset="0%"></stop><stop stop-color="#F3C936" offset="27.617%"></stop><stop stop-color="#DDA329" offset="49.964%"></stop><stop stop-color="#CA841F" offset="72.058%"></stop><stop stop-color="#C3781B" offset="100%"></stop></linearGradient><linearGradient x1="41.822%" y1="49.895%" x2="58.320%" y2="50.103%" id="b"><stop stop-color="#FDC52E" offset="0%"></stop><stop stop-color="#E19424" offset="42.375%"></stop><stop stop-color="#FDC62E" offset="49.718%"></stop><stop stop-color="#FDCB3A" offset="51.169%"></stop><stop stop-color="#FEDA59" offset="53.766%"></stop><stop stop-color="#FEE775" offset="55.751%"></stop><stop stop-color="#E49925" offset="100%"></stop></linearGradient><linearGradient x1="44.259%" y1="47.337%" x2="60.916%" y2="55.019%" id="c"><stop stop-color="#E9C868" offset="20.467%"></stop><stop stop-color="#FFEB8B" offset="41.238%"></stop><stop stop-color="#FFEFA3" offset="53.27%"></stop><stop stop-color="#E9C868" offset="100%"></stop></linearGradient><linearGradient x1="49.739%" y1="49.980%" x2="50.259%" y2="50.017%" id="d"><stop stop-color="#FEE775" offset="12.719%"></stop><stop stop-color="#FEDA59" offset="27.627%"></stop><stop stop-color="#FDCB3A" offset="47.141%"></stop><stop stop-color="#FDC62E" offset="58.039%"></stop><stop stop-color="#E19424" offset="99.644%"></stop></linearGradient><linearGradient x1="50.078%" y1="-.061%" x2="49.921%" y2="100.056%" id="e"><stop stop-color="#9E6615" offset="16.846%"></stop><stop stop-color="#E59C26" offset="32.917%"></stop><stop stop-color="#E19424" offset="47.641%"></stop><stop stop-color="#A06814" offset="100%"></stop></linearGradient></defs><g fill-rule="nonzero" fill="none"><path d="M41.639 8.697l1.584 1.591a1.207 1.207 0 01.120 1.562l-.124.144-.829.825 1.157 1.263.952.956a.306.306 0 01.056.354l-.057.079-.207.206a.613.613 0 00-.080.770l.078.096.72.723a.613.613 0 00.771.080l.096-.078.207-.206a.306.306 0 01.354-.056l.079.057.700.703c.318.32.353.815.103 1.173l-.106.127-1.047 1.043a.306.306 0 01-.354.056l-.079-.057-.164-.165a.613.613 0 00-.770-.080l-.096.078-.723.72a.613.613 0 00-.080.770l.078.096.164.165a.306.306 0 01.056.354l-.057.079-1.047 1.043c-.32.318-.815.353-1.173.103l-.127-.106-.729-.732a.265.265 0 01-.049-.306l.049-.068.217-.216a.613.613 0 00.080-.770l-.078-.096-.72-.723a.613.613 0 00-.771-.080l-.096.078-.217.216a.265.265 0 01-.306.049l-.068-.049-.981-.985-1.158-1.262-1.554 1.548.358.362a.426.426 0 01-.001.603l-1.854 1.846a.426.426 0 01-.603-.001l-.358-.362-11.755 11.705a1.242 1.242 0 00-.277 1.334l.080.166c2.102 3.630 1.937 7.640-.411 9.979-2.936 2.923-8.340 2.316-12.224-1.305l-.349-.338a11.646 11.646 0 01-3.396-6.592c-.312-2.390.329-4.516 1.807-5.988 2.349-2.338 6.360-2.487 9.981-.369.432.252.967.219 1.361-.070l.140-.120 11.755-11.705-.360-.360a.426.426 0 01.001-.603l1.854-1.846a.426.426 0 01.603.001l.360.360 7.811-7.777c.429-.426 1.098-.464 1.569-.114l.137.118zM15.009 36.499c.060-1.566-.949-2.973-2.452-3.417-1.502-.444-3.115.187-3.917 1.533-.751 1.262-.61 2.852.323 3.959l.197.214-.198.209.203-.203a3.392 3.392 0 002.221.995l.314.002.309-.010-.011.309a3.396 3.396 0 00.997 2.551c1.338 1.338 3.508 1.338 4.846-.000 1.338-1.338 1.338-3.508-.000-4.846a3.392 3.392 0 00-2.221-.995l-.314-.002-.309.010.011-.309z" fill="#000" opacity=".3"/><path d="M19.120 6.808l.002-1.020a.613.613 0 01.614-.612l.233.000a.306.306 0 00.307-.306l.003-1.478a.919.919 0 00-.917-.921l-.993-.002a.306.306 0 00-.307.306l-.000.292a.613.613 0 01-.614.612l-1.020-.002a.613.613 0 01-.612-.614l.000-.293a.306.306 0 00-.306-.307l-1.35-.002-.016 7.656 1.391.003a.265.265 0 00.266-.265l.000-.306a.613.613 0 01.614-.612l1.020.002a.613.613 0 01.612.614l-.000.306a.265.265 0 00.264.266l1.034.002a.92.92 0 00.921-.917l.003-1.478a.306.306 0 00-.306-.307l-.233-.000a.613.613 0 01-.612-.614z" fill="url(#a)" transform="rotate(45 16.792 43.606)"></path><path fill="#9E6615" d="M38.600 18.051l5.425-5.402-1.316-1.433-5.425 5.402z"></path><path d="M.288 40.802C.279 44.924 4.636 48.274 10.02 48.286c5.383.011 9.754-3.32 9.763-7.441.007-3.268-2.732-6.050-6.551-7.068a1.529 1.529 0 01-1.136-1.480l.066-31.081a.918.918 0 00-.916-.920L9.000.288a.918.918 0 00-.920.916L8.013 32.287a1.529 1.529 0 01-1.143 1.475C3.046 34.763.295 37.534.288 40.802zm7.040-3.700a3.701 3.701 0 012.712 1.190 3.715 3.715 0 11-.010 5.060c-1.159 1.239-3.012 1.534-4.499.717-1.487-.817-2.231-2.539-1.807-4.182.424-1.643 1.908-2.790 3.605-2.785z" fill="url(#b)" transform="rotate(45 16.792 43.606)"></path><path d="M8.998.288h.002l2.245.004a.918.918 0 01.916.920l-.066 31.081a1.529 1.529 0 001.136 1.480c3.819 1.017 6.558 3.800 6.551 7.068-.008 4.114-4.365 7.441-9.735 7.441h-.028C4.636 48.274.279 44.924.288 40.802c.007-3.268 2.758-6.039 6.581-7.040a1.529 1.529 0 001.142-1.475L8.079 1.205a.918.918 0 01.918-.916M7.321 44.533a3.701 3.701 0 002.709-1.179 3.701 3.701 0 002.712 1.190h.008c2.05-.000 3.711-1.661 3.714-3.711.002-2.05-1.656-3.714-3.706-3.719h-.008a3.701 3.701 0 00-2.709 1.179 3.701 3.701 0 00-2.712-1.190h-.008c-2.049.000-3.711 1.661-3.714 3.711-.002 2.05 1.656 3.714 3.706 3.719h.008M9.001 0h-.002c-.665.001-1.204.539-1.207 1.204l-.066 31.081a1.242 1.242 0 01-.927 1.197C2.738 34.546.007 37.487 0 40.802c-.004 2.085 1.045 4.042 2.956 5.512a11.646 11.646 0 007.063 2.260h.028c5.518 0 10.014-3.467 10.024-7.729.007-3.314-2.711-6.267-6.765-7.347a1.242 1.242 0 01-.922-1.201l.066-31.081A1.207 1.207 0 0011.246.004L9.000 0zM7.321 44.533l-.007-.288c-1.567-.000-2.934-1.064-3.319-2.583-.385-1.519.308-3.106 1.685-3.854 1.377-.748 3.086-.467 4.150.682l.210.226.211-.225a3.392 3.392 0 012.499-1.087c1.892 0 3.427 1.534 3.427 3.426 0 1.892-1.534 3.427-3.426 3.427a3.395 3.395 0 01-2.509-1.098l-.210-.226-.211.225a3.392 3.392 0 01-2.499 1.087v.288z" fill="url(#c)" transform="rotate(45 16.792 43.606)"></path><path d="M9.327 14.527l1.531.003-.045 21.206a.765.765 0 01-1.531-.003L9.327 14.528z" fill="url(#d)" transform="rotate(45 16.792 43.606)"></path><path d="M8.785 10.701h2.617c.235 0 .426.191.426.426v5.679a.426.426 0 01-.426.426H8.785a.426.426 0 01-.426-.426v-5.679a.426.426 0 01.426-.426z" fill="url(#e)" transform="rotate(-44.877 26.328 -11.810)"></path></g></svg>
