<svg xmlns="http://www.w3.org/2000/svg" width="124" height="40" fill="none"><path fill="#fff" d="M20.097 10.149H33.91v3.13H23.687v4.566h6.806v3.13h-6.806v5.112h10.539v3.13H20.097V10.149Z"/><path fill="#fff" d="M33.231 15.663h3.676l3.216 9.448 2.986-9.448h3.561l-4.939 13.554h-3.302l-5.198-13.554Z"/><path fill="#fff" fill-rule="evenodd" d="M53.085 15.404c-4.107 0-6.979 2.93-6.979 7.065s2.815 7.006 6.893 7.007c4.106 0 7.035-2.93 7.035-7.007 0-4.136-2.872-7.065-6.949-7.065Zm3.331 7.036v.115c0 2.527-1.293 4.02-3.389 4.02-2.067 0-3.302-1.493-3.302-4.02v-.115c0-2.585 1.263-4.135 3.36-4.135 2.067 0 3.331 1.55 3.331 4.135Z" clip-rule="evenodd"/><path fill="#fff" d="M61.652 9.891h3.59v19.326h-3.59V9.891ZM67.291 23.79v-8.127h3.561v7.926c0 1.809.861 2.871 2.469 2.871 1.867 0 2.642-1.579 2.642-3.905v-6.892h3.561v13.554h-3.561v-1.924c-.718 1.407-1.952 2.182-3.704 2.182-3.073 0-4.968-2.182-4.968-5.685ZM82.779 25.627v-7.093h-1.924v-2.871h1.924v-2.556l3.475-1.953v4.509h2.67v2.871h-2.699v6.749c0 .66.316.948.976.976h1.58v2.958h-2.757c-2.613-.144-3.188-1.35-3.245-3.59Z"/><path fill="#fff" fill-rule="evenodd" d="M94.247 10.207h-3.704v3.474h3.704v-3.474Zm-.058 5.456H90.6v13.554h3.589V15.663ZM102.787 15.404c-4.107 0-6.979 2.93-6.979 7.065s2.814 7.006 6.892 7.007c4.107 0 7.036-2.93 7.036-7.007 0-4.136-2.872-7.065-6.949-7.065Zm3.331 7.036v.115c0 2.527-1.293 4.02-3.389 4.02-2.067 0-3.303-1.493-3.303-4.02v-.115c0-2.585 1.264-4.135 3.361-4.135 2.067 0 3.331 1.55 3.331 4.135Z" clip-rule="evenodd"/><path fill="#fff" d="M111.325 15.663h3.561v2.211c.718-1.58 2.039-2.498 3.963-2.498 2.958 0 4.71 1.981 4.71 5.714v8.127h-3.561v-7.926c0-1.895-.718-2.871-2.384-2.871-1.694 0-2.728 1.378-2.728 3.905v6.892h-3.561V15.663ZM14.039 12.244C10.797 7.966 4.892 6.759 0 9.371c1.912 4.303 3.344 9.354 12.766 9.65 1.106.034 2.321.004 3.66-.101-.192-2.698-1.071-4.94-2.387-6.676ZM12.302 19.785c-5.67.28-8.332 2.347-9.995 4.897-.978 1.5-1.611 3.167-2.307 4.734 6.877 3.672 15.758-.2 16.426-9.55-1.53-.12-2.897-.142-4.124-.081Z"/><path fill="#fff" fill-rule="evenodd" d="M13.646 30.609c0-.768.623-1.392 1.39-1.392.768 0 1.391.624 1.391 1.392-.001.768-.623 1.391-1.391 1.391-.767 0-1.39-.623-1.39-1.391Zm.283 0c.001.612.495 1.108 1.107 1.108s1.106-.496 1.107-1.108c-.001-.613-.495-1.107-1.107-1.107s-1.106.494-1.107 1.107Z" clip-rule="evenodd"/><path fill="#fff" d="M14.504 30.383h-.207v-.138h.59v.138h-.207v.588h-.176v-.588ZM14.96 30.246h.278l.133.463.139-.463h.271v.725h-.173v-.586l-.183.586h-.138l-.177-.582v.582h-.15v-.725Z"/></svg>