<svg xmlns="http://www.w3.org/2000/svg"  width="24px" height="16px" viewBox="0 0 24 16"><g transform="translate(-2)" stroke="none" stroke-width="1" fill="none" fill-rule="evenodd"><path fill="#FFF" d="M0 16 27.4 16 27.4 0 0 0z"/><path fill="#F0953E" d="M0 5.3 27.4 5.3 27.4 0 0 0z"/><path fill="#3B8916" d="M0 16 27.4 16 27.4 10.7 0 10.7z"/><path d="M2.4.2v1.9V.2h.2v.2l.2-.1H3l-.4 1.2-.1.6.2-.6L3 .3H3v.1l.1.1H3.5l-.7 1-.3.7.4-.6.6-1h.1l.1.2H4l-.9.9-.4.5.5-.4.8-1 .2.2a.1.1 0 0 0 0 .2l.2.1-1.1.6-.6.4.7-.3 1-.7v.2l.1.2v.1l-1 .3-.7.2h.6l1.2-.5V2.4H2.8h1.9v.2h-.2l.1.2V3L4 2.8l-.8-.2-.6-.1.6.2 1.2.3V3h-.1l-.1.1V3.6l-1-.7-.7-.3.4.3.2.1 1 .6v.1l-.2.1V4L3 3l-.5-.4.4.5L4 4l-.2.2h-.2l-.1.2-.6-1.1-.4-.6.3.7.7 1h-.2l-.2.1H3l-.3-1-.2-.7v.6L3 4.5H2.4V2.8v1.9h-.2v-.2l-.2.1h-.2l.4-1.2.1-.6-.2.6-.3 1.2h-.1v-.1l-.1-.1H1.3l.7-1 .3-.7-.4.6-.6 1h-.1L1 4H.8l.9-.9.4-.5-.5.4-.8 1-.2-.2v-.2l-.2-.1 1.1-.6.6-.4-.7.3-1 .7v-.2A.1.1 0 0 0 .4 3V3l1-.3.7-.2h-.6L.3 3V2.4H2 .2v-.2h.2L.3 2v-.2l1.2.4.6.1-.6-.2-1.2-.3v-.1h.1a.1.1 0 0 0 0-.2l.1-.2 1 .7.7.3-.6-.4-1-.6v-.1L.9 1V.9l.9.9.5.4-.4-.5-1-.8.2-.2h.2l.1-.2.6 1.1.4.6-.3-.7-.7-1h.4V.3h.1l.3 1 .2.7v-.6L1.7.3H2.4m0-.3a2.4 2.4 0 1 0 0 4.8 2.4 2.4 0 0 0 0-4.8" fill="#16007E" transform="translate(11.3 5.6)"/><path d="M2.4 2a.4.4 0 1 1 0 .8.4.4 0 0 1 0-.8" fill="#FFF" transform="translate(11.3 5.6)"/><path d="M2.4 2.1c.2 0 .3.1.3.3a.3.3 0 1 1-.3-.3" fill="#16007E" transform="translate(11.3 5.6)"/></g></svg>