<?xml version="1.0" encoding="UTF-8"?>
<svg xmlns="http://www.w3.org/2000/svg" width="24" height="16" fill="none" version="1.1">
    <title>ko-24x16</title>
    <g id="ko-24x16" clip-path="url(#a)">
        <path fill="#fff" d="M0 0h24v16H0V0Z"/>
        <path fill="#000" d="m3.68 4.857 2.218-3.329.555.37-2.219 3.328-.555-.37Zm.831.554 2.22-3.328.554.37-2.219 3.328-.555-.37Zm.833.555 2.218-3.328.555.37-2.219 3.328-.554-.37ZM15.883 12.992l2.219-3.328.554.37-2.218 3.328-.555-.37Zm.832.555 2.219-3.328.554.37-2.218 3.328-.555-.37Zm.832.555 2.219-3.329.554.37-2.218 3.328-.555-.37ZM16.715 11.143l2.773 1.85Z"/><path stroke="#fff" stroke-width=".333" d="m16.715 11.143 2.773 1.85"/>
        <path fill="#CD2E3A" d="M8.672 5.781a4 4 0 1 1 6.656 4.438L8.672 5.78Z"/>
        <path fill="#0047A0" d="M8.672 5.781a4 4 0 0 0 6.656 4.438A2 2 0 0 0 12 8L8.672 5.781Z"/>
        <path fill="#CD2E3A" d="M12 8a2 2 0 1 0-3.328-2.219A2 2 0 0 0 12 8Z"/>
        <path fill="#000" d="M5.898 14.471 3.68 11.143l.555-.37 2.219 3.329-.555.37Zm.832-.554-2.219-3.329.555-.37 2.219 3.329-.555.37Zm.832-.555-2.219-3.328.555-.37 2.219 3.328-.555.37ZM18.102 6.336l-2.22-3.328.556-.37 2.218 3.328-.554.37Zm.832-.555-2.22-3.328.556-.37 2.218 3.328-.554.37Zm.832-.554-2.22-3.329.556-.37 2.218 3.329-.554.37ZM5.482 12.345l.832-.555Zm11.233-7.488.97-.648Zm1.803-1.202.832-.555Z"/>
        <path stroke="#fff" stroke-width=".333" d="m5.482 12.345.832-.555m10.4-6.933.972-.648m.832-.554.832-.555"/>
    </g>
    <defs>
        <clipPath id="a">
            <path fill="#fff" d="M0 0h24v16H0z"/>
        </clipPath>
    </defs>
</svg>