<svg width="28" height="28" xmlns="http://www.w3.org/2000/svg"><defs><linearGradient x1="50%" y1="0%" x2="50%" y2="100%" id="linearGradient-1"><stop stop-color="#343434" offset="0%"/><stop stop-color="#141313" offset="100%"/></linearGradient><linearGradient x1="50%" y1="0%" x2="50%" y2="56.255%" id="linearGradient-2"><stop stop-color="#FFF" stop-opacity=".7" offset="0%"/><stop stop-color="#FFF" stop-opacity="0" offset="100%"/></linearGradient><linearGradient x1="50%" y1="0%" x2="50%" y2="100%" id="linearGradient-3"><stop stop-color="#FFF" offset="0%"/><stop stop-color="#FFF" stop-opacity=".17" offset="62.587%"/><stop stop-color="#FFF" stop-opacity="0" offset="100%"/></linearGradient><linearGradient x1="-23.754%" y1="-19.592%" x2="135.609%" y2="83.684%" id="linearGradient-4"><stop stop-color="#FFF" offset="0%"/><stop stop-color="#FFF" stop-opacity=".608" offset="10.098%"/><stop stop-color="#FFF" stop-opacity=".729" offset="19.413%"/><stop stop-color="#FFF" stop-opacity="0" offset="28.127%"/><stop stop-color="#FFF" stop-opacity="0" offset="74.171%"/><stop stop-color="#FFF" offset="100%"/></linearGradient></defs><g id="_P_OFF" stroke="none" stroke-width="1" fill="none" fill-rule="evenodd"><circle id="Oval-Copy-2" fill="#0E0E0E" fill-rule="nonzero" cx="14" cy="14" r="14"/><circle id="Oval" stroke="#FFF" stroke-width=".583" opacity=".3" cx="13.998" cy="13.998" r="13"/><circle id="Oval-Copy-3" fill="url(#linearGradient-1)" fill-rule="nonzero" cx="14" cy="14" r="13"/><path d="M13.38 16.09C22.422 13.863 27 21.18 27 14S21.18 1 14 1 1 6.82 1 14s3.339 4.315 12.38 2.09z" id="circle-copy-4" fill="url(#linearGradient-2)" fill-rule="nonzero" opacity=".2"/><path d="M9.95 22.362c1.972-4.418 4.792-8.711 16.193-7.813-.689 9.808-9.97 13.865-17.143 10.009.098-.222.194-.445.29-.67l.145-.337.072-.17.22-.51.074-.17.15-.34zm16.193-8.91c-11.401.897-14.22-3.396-16.192-7.814l-.15-.34-.074-.17-.22-.51a490.24 490.24 0 01-.072-.169l-.145-.337a73.777 73.777 0 00-.29-.67c7.172-3.856 16.454.201 17.143 10.01z" id="LOGO" fill="url(#linearGradient-3)" fill-rule="nonzero" opacity=".072"/><path d="M7.746 18.219c2.121 0 3.746-1.492 3.746-4.11 0-2.617-1.625-4.109-3.746-4.109C5.613 10 4 11.492 4 14.11c0 2.605 1.613 4.109 3.746 4.109zm0-1.496c-1.23 0-2.031-.918-2.031-2.614 0-1.695.8-2.613 2.031-2.613 1.227 0 2.031.918 2.031 2.613 0 1.696-.804 2.614-2.03 2.614zm6.688.54v-2.458h2.556a.697.697 0 100-1.395h-2.556v-1.906h2.908a.697.697 0 100-1.395h-4.1a.5.5 0 00-.5.5v6.655a.846.846 0 101.692 0zm6.433 0v-2.458h2.557a.697.697 0 100-1.395h-2.557v-1.906h2.908a.697.697 0 100-1.395h-4.1a.5.5 0 00-.5.5v6.655a.846.846 0 101.692 0z" id="OFF" fill="#FFF" fill-rule="nonzero"/><circle id="Oval" stroke="url(#linearGradient-4)" stroke-width=".583" cx="13.998" cy="13.998" r="13"/></g></svg>