<svg width="28" height="28" xmlns="http://www.w3.org/2000/svg"><defs><linearGradient x1="50%" y1="0%" x2="50%" y2="100%" id="linearGradient-1"><stop stop-color="#FFF" offset="0%"/><stop stop-color="#949894" offset="100%"/></linearGradient><linearGradient x1="50%" y1="0%" x2="50%" y2="56.255%" id="linearGradient-2"><stop stop-color="#FFF" stop-opacity=".7" offset="0%"/><stop stop-color="#FFF" stop-opacity="0" offset="100%"/></linearGradient><linearGradient x1="50%" y1="0%" x2="50%" y2="100%" id="linearGradient-3"><stop stop-color="#FFF" offset="0%"/><stop stop-color="#FFF" stop-opacity=".17" offset="62.587%"/><stop stop-color="#FFF" stop-opacity="0" offset="100%"/></linearGradient></defs><g id="_P_ON" stroke="none" stroke-width="1" fill="none" fill-rule="evenodd"><g id="Group" fill-rule="nonzero"><circle id="Oval-Copy-2" fill="#0E0E0E" cx="14" cy="14" r="14"/><circle id="Oval-Copy-3" fill="url(#linearGradient-1)" cx="14" cy="14" r="13"/><path d="M13.38 16.09C22.422 13.863 27 21.18 27 14S21.18 1 14 1 1 6.82 1 14s3.339 4.315 12.38 2.09z" id="circle-copy-4" fill="url(#linearGradient-2)"/><path d="M9.95 22.362c1.972-4.418 4.792-8.711 16.193-7.813-.689 9.808-9.97 13.865-17.143 10.009.098-.222.194-.445.29-.67l.145-.337.072-.17.22-.51.074-.17.15-.34zm16.193-8.91c-11.401.897-14.22-3.396-16.192-7.814l-.15-.34-.074-.17-.22-.51a490.24 490.24 0 01-.072-.169l-.145-.337a73.777 73.777 0 00-.29-.67c7.172-3.856 16.454.201 17.143 10.01z" id="LOGO" fill="url(#linearGradient-3)"/></g><path d="M9.587 18.566c2.314 0 4.086-1.628 4.086-4.483 0-2.855-1.772-4.483-4.086-4.483C7.26 9.6 5.5 11.228 5.5 14.083c0 2.842 1.76 4.483 4.087 4.483zm0-1.632c-1.343 0-2.216-1.002-2.216-2.851 0-1.85.873-2.85 2.216-2.85 1.338 0 2.216 1 2.216 2.85s-.878 2.85-2.216 2.85zm7.295.59v-4.57h.064l3.344 4.837c.284.41.75.656 1.25.656.44 0 .797-.357.797-.797v-7.012a.918.918 0 10-1.837 0v4.57h-.077l-3.309-4.821a1.538 1.538 0 00-1.267-.668.81.81 0 00-.81.81v6.995a.923.923 0 101.845 0z" id="ON" fill="#252424" fill-rule="nonzero"/><circle id="Oval" stroke="#FFF" stroke-width=".583" opacity=".62" cx="13.998" cy="13.998" r="13"/></g></svg>