<svg width="100%" height="100%" viewBox="0 0 46 46" xmlns="http://www.w3.org/2000/svg"><defs><radialGradient cx="50%" cy="50%" fx="50%" fy="50%" r="54.679%" gradientTransform="matrix(1 0 0 .992 0 .003)" id="b"><stop stop-color="#FFF" offset="2.854%"></stop><stop stop-color="#FFFDCF" offset="24.66%"></stop><stop stop-color="#F3C936" offset="72.39%"></stop><stop stop-color="#DEA52A" offset="88.35%"></stop><stop stop-color="#D29023" offset="100%"></stop></radialGradient><linearGradient x1="55.66%" y1="99.69%" x2="44.34%" y2=".314%" id="a"><stop stop-color="#E9C868" offset="20.467%"></stop><stop stop-color="#FFEB8B" offset="41.238%"></stop><stop stop-color="#FFF" offset="100%"></stop></linearGradient></defs><g fill-rule="nonzero" fill="none"><path d="M22.989 1.478c-11.774.005-21.358 9.471-21.509 21.245-.151 11.773 9.186 21.482 20.956 21.791.192.005.383.007.574.007 11.774-.005 21.358-9.472 21.509-21.245.151-11.773-9.185-21.482-20.956-21.791a21.964 21.964 0 00-.574-.007z" fill="url(#a)"></path><path d="M6.097 6.718a19.988 19.988 0 0110.699-5.702c-2.153 3.441-5.844 11.692 2.288 18.791C15.252 18.397 6.896 14.458 6.097 6.718zM19.426 21.043C15.939 19.883 6.636 16.042 5.181 7.718a19.987 19.987 0 00-3.816 6.789c3.393 6.174 12.088 8.365 18.061 6.535zm.201.673C12.786 30.298 4.698 27.315.850 25.099a20.015 20.015 0 005.556 9.977c8.001-.833 11.939-9.727 13.220-13.359zM7.407 35.989a20.047 20.047 0 006.039 3.559c6.184-3.090 8.584-11.380 7.160-17.433-1.298 3.733-5.157 12.467-13.199 13.873zM33.452 5.492a20.048 20.048 0 00-6.039-3.559c-6.185 3.090-8.584 11.380-7.160 17.433 1.298-3.733 5.157-12.467 13.2-13.873zM21.777 21.678c8.133 7.098 4.438 15.346 2.288 18.787A19.991 19.991 0 0034.762 34.764c-.802-7.733-9.150-11.675-12.984-13.085zm18.232-5.295a20.016 20.016 0 00-5.556-9.977c-7.994.830-11.935 9.723-13.220 13.359 6.841-8.581 14.929-5.598 18.777-3.382zM21.433 20.439c3.486 1.159 12.790 5.000 14.245 13.325a19.991 19.991 0 003.816-6.789c-3.393-6.174-12.088-8.365-18.061-6.535z" fill="url(#b)" transform="translate(2.57 2.259)"></path><path d="M43.055 23a19.995 19.995 0 01-.989 6.233c-3.392-6.174-12.088-8.365-18.061-6.535 3.486 1.159 12.790 5.000 14.245 13.325a20.847 20.847 0 01-.916 1.000c-.802-7.733-9.150-11.675-12.984-13.085 8.133 7.098 4.438 15.346 2.288 18.787a20.189 20.189 0 01-10.619-.916c6.185-3.090 8.584-11.380 7.160-17.433-1.298 3.733-5.157 12.467-13.2 13.873a22.759 22.759 0 01-1-.913c8.001-.833 11.939-9.727 13.220-13.359-6.841 8.581-14.929 5.598-18.777 3.382a20.156 20.156 0 01.514-10.592c3.392 6.174 12.088 8.365 18.061 6.535-3.486-1.159-12.79-5.000-14.245-13.324.295-.343.600-.677.916-1.000.798 7.740 9.154 11.679 12.988 13.088-8.133-7.098-4.441-15.349-2.288-18.791a20.176 20.176 0 0110.616.916c-6.185 3.090-8.584 11.380-7.160 17.433 1.298-3.733 5.157-12.467 13.2-13.873.343.295.677.600 1.000.913-7.994.830-11.935 9.723-13.220 13.359 6.841-8.581 14.929-5.598 18.777-3.382A20.025 20.025 0 0143.055 23z" fill="#C139E2"></path><path d="M26.472 33.039c-10.387-.002-19.498-6.931-22.274-16.940-2.596 7.146-.927 15.147 4.309 20.660 5.236 5.513 13.140 7.591 20.411 5.365 7.270-2.225 12.658-8.370 13.912-15.870a23.041 23.041 0 01-16.358 6.785z" fill="#F7D0D0" opacity=".7" style="mix-blend-mode: multiply;"></path><path d="M4.330 22.163c0 1.987 1.156 4.936 2.808 3.589 2.244-1.829-.765-6.112 4.597-11.978 7.408-8.103 15.458-4.089 15.458-7.000 0-1.226-1.558-2.797-3.919-2.797-4.932 0-18.944 4.242-18.944 18.187zM34.194 11.574c-.875-.466-4.921-1.539-4.921-3.182 0-1.046 1.679-2.093 3.052-2.093 2.149 0 5.657 3.971 5.657 5.632 0 .438-.242.713-.805.713-.599 0-1.561-.311-2.983-1.068z" fill="#FFF" opacity=".6"></path></g></svg>
