<svg xmlns="http://www.w3.org/2000/svg" fill="none" viewBox="0 0 24 24"><path fill="#24272C" d="M.35 12a11.65 11.65 0 1 1 23.3 0 11.65 11.65 0 0 1-23.3 0Z"/><path fill="url(#power_ball_a)" d="M.35 12a11.65 11.65 0 1 1 23.3 0 11.65 11.65 0 0 1-23.3 0Z"/><path stroke="url(#power_ball_b)" stroke-width=".71" d="M.35 12a11.65 11.65 0 1 1 23.3 0 11.65 11.65 0 0 1-23.3 0Z"/><path stroke="url(#power_ball_c)" stroke-width=".71" d="M22.94 12a10.94 10.94 0 1 1-21.88 0 10.94 10.94 0 0 1 21.88 0Z"/><g filter="url(#power_ball_d)"><ellipse cx="12" cy="6" fill="url(#power_ball_e)" fill-opacity=".4" rx="8.47" ry="5.29"/></g><defs><linearGradient id="power_ball_b" x1="11.82" x2="11.82" y1="24.08" y2=".26" gradientUnits="userSpaceOnUse"><stop offset=".01" stop-color="#484C50"/><stop offset=".61" stop-color="#5E6165"/><stop offset="1" stop-color="#242B32"/></linearGradient><linearGradient id="power_ball_c" x1="12.17" x2="12.17" y1=".63" y2="23.05" gradientUnits="userSpaceOnUse"><stop offset=".01" stop-color="#8E9194"/><stop offset=".61" stop-color="#EEE"/><stop offset="1" stop-color="#757B80"/></linearGradient><linearGradient id="power_ball_e" x1="12.4" x2="12.4" y1="11.29" y2=".71" gradientUnits="userSpaceOnUse"><stop stop-color="#fff" stop-opacity="0"/><stop offset="1" stop-color="#fff"/></linearGradient><radialGradient id="power_ball_a" cx="0" cy="0" r="1" gradientTransform="matrix(0 -16.227 20.396 0 12 25.23)" gradientUnits="userSpaceOnUse"><stop stop-color="#8A8E92"/><stop offset="1" stop-color="#2B3336" stop-opacity="0"/></radialGradient><filter id="power_ball_d" width="18.19" height="11.84" x="2.9" y=".08" color-interpolation-filters="sRGB" filterUnits="userSpaceOnUse"><feFlood flood-opacity="0" result="BackgroundImageFix"/><feBlend in="SourceGraphic" in2="BackgroundImageFix" result="shape"/><feGaussianBlur result="effect1_foregroundBlur_4_2" stdDeviation=".31"/></filter></defs></svg>