<svg xmlns="http://www.w3.org/2000/svg" viewBox="0 0 68 95"><defs><clipPath id="clip-path" transform="translate(-.04 -.46)"><path d="M.11.1h67.86v94.79H.11z" class="cls-1"/></clipPath><clipPath id="clip-path-2" transform="translate(-.04 -.46)"><path d="M0 0h68.08v95H0z" class="cls-1"/></clipPath><style>.cls-1{fill:none}.cls-5,.cls-6{fill:#e13a3e}.cls-5{fill-rule:evenodd}</style></defs><g id="Layer_2" data-name="Layer 2"><rect id="BG" width="68" height="95" fill="#fff" rx="4" ry="4"/><g clip-path="url(#clip-path)" data-name="Layer 50"><g id="Layer_50" clip-path="url(#clip-path-2)"><path d="M9.64 5.85v-.14l-.05-.26-.08-.25-.05-.12-.16-.24-.16-.22-.18-.18-.22-.17-.25-.13-.12-.06L8.12 4l-.26-.06h-.81l-.24.08-.25.13-.11.06-.22.17-.19.19-.16.22-.14.23-.06.12-.08.25-.06.26v6.44l.06.26.08.25.13.24.07.11.16.22.19.19.22.16.23.14.13.06.24.08.26.06h.55l.26-.06.25-.08.25-.13.11-.05.23-.12.19-.19.16-.22.14-.23.05-.12.08-.25.05-.26v-.14zm-1 0v6.35l-.07.15-.09.19-.08.11-.08.08-.11.08-.13.08-.12.03h-.64l-.16-.07-.2-.08-.11-.08-.08-.08-.07-.07-.08-.14v-.1l-.05-.22V5.51l.08-.14.08-.11.08-.08.15-.09.14-.08h.09l.22-.05h.64l.13.08.11.08.08.08.08.11.11.23.07.16z" class="cls-5"/><path d="M3.62 4.03h.91v9.81h-.91z" class="cls-6"/><path d="M58.35 88.24v.14l.05.26.08.25.12.24.07.11.17.22.19.19.22.16.23.14.13.06.25.08.26.05h.55l.26-.05.24-.08.25-.13.11-.07.22-.16.19-.19.16-.22.14-.23.06-.12.08-.25.06-.26v-6.45l-.06-.26-.08-.24-.13-.25-.07-.11-.14-.22-.19-.19-.22-.17-.23-.13-.12-.06-.24-.08-.26-.05h-.81l-.25.08-.13.06-.23.13-.22.17-.19.19-.17.22-.14.23-.05.13-.08.24-.05.26v.14zm1 0v-6.36l.07-.15.08-.14.08-.11.08-.08.11-.08.14-.08.15-.07h.64l.16.07.14.08.11.08.08.08.08.11.08.14v.1l.05.22v6.53l-.08.14-.08.1-.08.08-.11.08-.14.08h-.1l-.22.05h-.65l-.14-.08-.11-.08-.08-.08-.08-.1-.1-.23-.07-.17z" class="cls-5"/><path d="M63.45 80.25h.92v9.81h-.92z" class="cls-6"/><path d="m18.32 45.63.47-.4.47-.43.45-.54.59-.78.82-1.15.87-1.25.64-1.05.54-.98.51-.99.66-1.49.22-.59.25-.79.12-.45.08-.42.06-.4.02-.38v-.71l-.06-.56-.03-.26-.07-.26-.11-.28-.28-.56-.15-.24-.31-.4-.32-.32-.33-.22-.38-.21-.54-.21-.3-.08-.28-.06-.24-.02-.24.02-.42.06-.35.08-.33.1-.34.16-.35.21-.4.3-.37.38-.3.45-.27.49-.28-.49-.3-.45-.36-.38-.4-.3-.35-.21-.35-.16-.33-.1-.35-.08-.42-.06-.24-.02-.24.02-.28.06-.3.08-.54.21-.38.21-.33.22-.31.32-.32.4-.15.24-.28.56-.11.28-.07.26-.03.26-.05.56v.71l.01.38.06.4.08.42.12.45.25.79.23.59.66 1.49.5.99.54.98.64 1.05.88 1.25.81 1.15.59.78.46.54.46.43.48.4zm0-19.38.47-.4.47-.44.45-.54.59-.78.82-1.15.87-1.26.64-1.04.54-.97.51-.99.66-1.5.22-.59.25-.79.12-.45.08-.42.06-.4.02-.38v-.71l-.06-.56-.03-.26-.07-.26-.11-.28-.28-.56-.15-.24-.31-.4-.32-.32-.33-.22-.38-.21-.54-.2-.3-.09-.28-.06-.24-.01-.24.01-.42.06-.35.09-.33.09-.34.16-.35.21-.4.3-.37.38-.3.45-.27.49-.28-.49-.3-.45-.36-.38-.4-.3-.35-.21-.35-.16-.33-.09-.35-.09-.42-.06-.24-.01-.24.01-.28.06-.3.09-.54.2-.38.21-.33.22-.31.32-.32.4-.15.24-.28.56-.11.28-.07.26-.03.26-.05.56v.71l.01.38.06.4.08.42.12.45.25.79.23.59.66 1.5.5.99.54.97.64 1.04.88 1.26.81 1.15.59.78.46.54.46.44.48.4zm31.36 19.38.47-.4.47-.43.45-.54.59-.78.82-1.15.87-1.25.64-1.05.54-.98.51-.99.66-1.49.22-.59.25-.79.12-.45.09-.42.05-.4.01-.38v-.71l-.04-.56-.04-.26-.07-.26-.1-.28-.28-.56-.16-.24-.31-.4-.31-.32-.34-.22-.38-.21-.54-.21-.29-.08-.28-.06-.25-.02-.24.02-.42.06-.35.08-.33.1-.34.16-.35.21-.4.3-.37.38-.29.45-.28.49-.28-.49-.3-.45-.36-.38-.4-.3-.35-.21-.35-.16-.33-.1-.35-.08-.41-.06-.25-.02-.24.02-.28.06-.29.08-.54.21-.39.21-.33.22-.31.32-.32.4-.15.24-.28.56-.11.28-.06.26-.04.26-.05.56v.71l.02.38.05.4.08.42.13.45.24.79.23.59.66 1.49.5.99.54.98.65 1.05.87 1.25.81 1.15.6.78.45.54.46.43.48.4zM34 35.94l.47-.4.47-.44.45-.54.59-.78.82-1.15.87-1.25.64-1.04.54-.98.5-.99.67-1.5.22-.59.25-.78.12-.46.09-.41.05-.4.02-.39v-.71l-.05-.56-.04-.26-.07-.26-.1-.28-.28-.55-.16-.25-.31-.4-.32-.31-.33-.22-.38-.22-.54-.2-.3-.09-.27-.05-.25-.02-.24.02-.42.05-.34.09-.34.1-.35.16-.34.21-.4.29-.37.39-.3.45-.27.48-.28-.48-.3-.45-.36-.39-.4-.29-.35-.21-.35-.16-.33-.1-.35-.09-.41-.05-.25-.02-.24.02-.28.05-.3.09-.54.2-.38.22-.33.22-.31.31-.32.4-.15.25-.28.55-.1.28-.08.26-.03.26-.05.56v.71l.02.39.05.4.09.41.12.46.24.78.23.59.66 1.5.5.99.54.98.64 1.04.88 1.25.81 1.15.59.78.46.54.47.44.47.4zm15.68-9.69.47-.4.47-.44.45-.54.59-.78.82-1.15.87-1.26.64-1.04.54-.97.51-.99.66-1.5.22-.59.25-.79.12-.45.09-.42.05-.4.01-.38v-.71l-.04-.56-.04-.26-.07-.26-.1-.28-.28-.56-.16-.24-.31-.4-.31-.32-.34-.22-.38-.21-.54-.2-.29-.09-.28-.06-.25-.01-.24.01-.42.06-.35.09-.33.09-.34.16-.35.21-.4.3-.37.38-.29.45-.28.49-.28-.49-.3-.45-.36-.38-.4-.3-.35-.21-.35-.16-.33-.09-.35-.09-.41-.06-.25-.01-.24.01-.28.06-.29.09-.54.2-.39.21-.33.22-.31.32-.32.4-.15.24-.28.56-.11.28-.06.26-.04.26-.05.56v.71l.02.38.05.4.08.42.13.45.24.79.23.59.66 1.5.5.99.54.97.65 1.04.87 1.26.81 1.15.6.78.45.54.46.44.48.4zm-31.36 22.2-.48.41-.46.43-.46.54-.59.78-.81 1.15-.88 1.25-.64 1.05-.54.97-.5 1-.66 1.49-.23.59-.25.79-.12.45-.08.42-.06.39-.01.39v.71l.05.56.03.26.07.26.11.28.28.56.15.24.32.4.31.31.33.23.38.21.54.21.3.08.28.06.24.01.24-.01.42-.06.35-.08.33-.11.35-.15.35-.21.4-.3.36-.38.3-.45.28-.49.27.49.3.45.37.38.4.3.35.21.34.15.33.11.35.08.42.06.24.01.24-.01.28-.06.3-.08.54-.21.38-.21.33-.23.32-.31.31-.4.15-.24.28-.56.11-.28.07-.26.03-.26.06-.56v-.71l-.02-.39-.06-.39-.08-.42-.12-.45-.25-.79-.22-.59-.66-1.49-.51-1-.54-.97-.64-1.05-.87-1.25-.82-1.15-.59-.78-.45-.54-.47-.43-.47-.41zm0 19.39-.48.4-.46.44-.46.54-.59.78-.81 1.15-.88 1.25-.64 1.05-.54.97-.5.99-.66 1.5-.23.59-.25.79-.12.45-.08.42-.06.39-.01.39v.71l.05.56.03.26.07.26.11.28.28.56.15.24.32.4.31.31.33.23.38.21.54.2.3.09.28.06.24.01.24-.01.42-.06.35-.09.33-.1.35-.15.35-.22.4-.29.36-.38.3-.45.28-.49.27.49.3.45.37.38.4.29.35.22.34.15.33.1.35.09.42.06.24.01.24-.01.28-.06.3-.09.54-.2.38-.21.33-.23.32-.31.31-.4.15-.24.28-.56.11-.28.07-.26.03-.26.06-.56v-.71l-.02-.39-.06-.39-.08-.42-.12-.45-.25-.79-.22-.59-.66-1.5-.51-.99-.54-.97-.64-1.05-.87-1.25L20.3 70l-.59-.78-.45-.54-.47-.44-.47-.4zm31.36-19.39-.48.41-.46.43-.45.54-.6.78-.81 1.15-.87 1.25-.65 1.05-.54.97-.5 1-.66 1.49-.23.59-.24.79-.13.45-.08.42-.05.39-.02.39v.71l.05.56.04.26.06.26.11.28.28.56.15.24.32.4.31.31.33.23.39.21.54.21.29.08.28.06.24.01.25-.01.41-.06.35-.08.33-.11.35-.15.35-.21.4-.3.36-.38.3-.45.28-.49.28.49.29.45.37.38.4.3.35.21.34.15.33.11.35.08.42.06.24.01.25-.01.28-.06.29-.08.54-.21.38-.21.34-.23.31-.31.31-.4.16-.24.28-.56.1-.28.07-.26.04-.26.04-.56v-.71l-.01-.39-.05-.39-.09-.42-.12-.45-.25-.79-.22-.59-.66-1.49-.51-1-.54-.97-.64-1.05-.87-1.25-.82-1.15-.59-.78-.45-.54-.47-.43-.47-.41zM34 58.15l-.47.4-.47.44-.46.53-.59.79-.81 1.14-.88 1.26-.64 1.04-.54.98-.5.99-.66 1.5-.23.59-.24.78-.12.45-.09.42-.05.4-.02.39v.71l.05.55.03.26.08.26.1.29.28.55.15.24.32.41.31.31.33.22.38.21.54.21.3.09.28.05.24.02.25-.02.41-.05.35-.09.33-.1.35-.16.35-.21.4-.29.36-.39.3-.45.28-.49.27.49.3.45.37.39.4.29.34.21.35.16.34.1.34.09.42.05.24.02.25-.02.27-.05.3-.09.54-.21.38-.21.33-.22.32-.31.31-.41.16-.24.28-.55.1-.29.07-.26.04-.26.05-.55v-.71l-.02-.39-.05-.4-.09-.42-.12-.45-.25-.78-.22-.59-.67-1.5-.5-.99-.54-.98-.64-1.04-.87-1.26-.82-1.14-.59-.79-.45-.53-.47-.44-.47-.4zm15.68 9.69-.48.4-.46.44-.45.54-.6.78-.81 1.15-.87 1.25-.65 1.05-.54.97-.5.99-.66 1.5-.23.59-.24.79-.13.45-.08.42-.05.39-.02.39v.71l.05.56.04.26.06.26.11.28.28.56.15.24.32.4.31.31.33.23.39.21.54.2.29.09.28.06.24.01.25-.01.41-.06.35-.09.33-.1.35-.15.35-.22.4-.29.36-.38.3-.45.28-.49.28.49.29.45.37.38.4.29.35.22.34.15.33.1.35.09.42.06.24.01.25-.01.28-.06.29-.09.54-.2.38-.21.34-.23.31-.31.31-.4.16-.24.28-.56.1-.28.07-.26.04-.26.04-.56v-.71l-.01-.39-.05-.39-.09-.42-.12-.45-.25-.79-.22-.59-.66-1.5-.51-.99-.54-.97-.64-1.05-.87-1.25-.82-1.15-.59-.78-.45-.54-.47-.44-.47-.4zM6.56 21.62l.18-.15.18-.18.17-.2.22-.29.32-.44.32-.48.25-.4.2-.36.2-.38.26-.58.08-.22.1-.3.08-.33.01-.15v-.42l-.03-.32-.06-.2-.17-.3-.23-.28-.28-.16-.2-.08-.22-.06h-.19l-.29.06-.26.09-.14.08-.14.13-.15.13-.21.36-.22-.36-.14-.13-.15-.13-.13-.08-.27-.09-.28-.06h-.2l-.21.06-.21.08-.27.16-.23.28-.17.3-.07.2-.03.32v.27l.02.3.08.33.1.3.08.22.26.58.19.38.21.36.24.4.33.48.31.44.22.29.18.2.18.18.18.15zm54.88 50.85-.18.15-.18.18-.18.2-.22.29-.31.44-.33.47-.25.4-.2.37-.19.39-.26.57-.18.52-.08.33-.01.3v.27l.02.32.07.2.16.3.23.28.28.16.2.08.22.06h.19l.29-.06.26-.09.14-.09.15-.12.14-.13.22-.36.21.36.14.13.15.12.14.09.26.09.29.06h.19l.22-.06.2-.08.28-.16.23-.28.16-.3.07-.2.03-.32v-.43l-.02-.14-.08-.33-.17-.52-.26-.57-.2-.39-.2-.37-.25-.4-.64-.91-.22-.29-.18-.2-.17-.18-.18-.15z" class="cls-5"/></g></g></g></svg>