<svg xmlns="http://www.w3.org/2000/svg" xmlns:xlink="http://www.w3.org/1999/xlink" viewBox="0 0 53 80" fill="none"><g clip-path="url(#G)"><path d="M50.63 75.723l-1.331-2.909h.131l-.331-.49h.201l-.331-.49h.201l-.331-.49h.201l-.331-.49h.201l-.331-.49h.201l-.331-.49h.201l-8.92-13.182 11.244-18.736-.914-3.432-.261-.98-.262-.98-.131-.491h-.425l.294-.49h-.425l.294-.49h-.425l.294-.49h-.425l.294-.49h-.425l.294-.49h-.425l.294-.49h-.425l.294-.491h-.425l.294-.49H28.803l-3.733 6.657-4.349-6.657H.931l.324.49h-.193l.324.491h-.193l.324.49h-.193l.028.043 1.143 4.639 1.051 3.652 8.196 12.393L.007 69.872h.425l-.294.49h.425l-.294.49h.425l-.294.49h.425l-.294.49h.425l-.294.49h.035l.046.23 1.879 7.123h19.575l4.182-7.396 5.081 7.396H52l-1.37-3.954z" fill="url(#A)"/><path d="M48.638 69.856L38.207 54.442l11.84-19.935-1.7-6.373H28.796l-3.732 6.657-4.35-6.657H.924l.203.308h-.105l.203.307H1.12l.203.308h-.105l.203.307h-.105l.203.308h-.105l.203.308h-.105l.134.201-.199.569 1.04 3.538L12.576 48.93 0 69.856h.283l-.022.037-.208.225 1.594 5.828 19.889.055 4.182-7.396 5.081 7.396 19.832-.279-1.992-5.866z" fill="url(#B)"/><path d="M48.638 69.856l-12.315-18.2 12.678-21.072-.654-2.451H28.796l-3.732 6.657-4.35-6.657H.924l.026.131.262 1.308.026.131.025.131.026.131.026.131.026.131.026.131.025.131.053.261 11.556 17.473L0 69.856l.674 2.587 19.423.028 4.182-7.396 5.081 7.396 20.155-.038-.877-2.577z" fill="url(#C)"/><use xlink:href="#H" fill="#221f20"/><path d="M28.883 69.767l-5.134-7.473-4.225 7.473H.154L13.68 47.261 1.085 28.219h19.581l4.402 6.737 3.777-6.737h19.348l-13.084 21.8 13.364 19.749h-19.59z" fill="url(#D)"/><use xlink:href="#H" fill="url(#E)"/><path d="M23.54 57.529l1.185 1.726 5.487 7.988H43.711l-11.13-16.45-.468-.69.43-.715 11.186-18.64H30.327l-4.038 7.202-1.055 1.882-1.18-1.805-4.755-7.279H5.788l10.425 15.763.455.687-.425.707L4.622 67.243H18.05l4.46-7.891 1.03-1.823z" stroke="url(#F)" stroke-width="1.197" stroke-miterlimit="10"/></g><defs><linearGradient id="A" x1="26.004" y1="28.148" x2="26.004" y2="79.676" xlink:href="#I"><stop stop-color="#e28747"/><stop offset=".43" stop-color="#df8445"/><stop offset=".66" stop-color="#d87c40"/><stop offset=".842" stop-color="#cc6f38"/><stop offset=".999" stop-color="#bb5c2d"/></linearGradient><linearGradient id="B" x1="25.315" y1="28.133" x2="25.315" y2="76.001" xlink:href="#I"><stop stop-color="#ee5a29"/><stop offset=".999" stop-color="#ab2927"/></linearGradient><linearGradient id="C" x1="24.758" y1="72.471" x2="24.758" y2="28.133" xlink:href="#I"><stop stop-color="#53131d"/><stop offset="1" stop-color="#761a25"/></linearGradient><linearGradient id="D" x1="24.314" y1="71.748" x2="24.314" y2="28.049" xlink:href="#I"><stop stop-color="#53131d"/><stop offset="1" stop-color="#761a25"/></linearGradient><linearGradient id="E" x1="24.175" y1="67.243" x2="24.175" y2="30.748" xlink:href="#I"><stop stop-color="#f6c829"/><stop offset=".212" stop-color="#e0a126"/><stop offset=".334" stop-color="#d79125"/><stop offset=".35" stop-color="#e8ae2b"/><stop offset=".374" stop-color="#ffd735"/><stop offset=".756" stop-color="#fff"/><stop offset=".945" stop-color="#fbde86"/><stop offset=".999" stop-color="#fad562"/></linearGradient><linearGradient id="F" x1="24.195" y1="67.243" x2="24.195" y2="30.748" xlink:href="#I"><stop stop-color="#fff"/><stop offset=".076" stop-color="#fffcf3"/><stop offset=".211" stop-color="#fff4d4"/><stop offset=".389" stop-color="#ffe7a3"/><stop offset=".441" stop-color="#ffe494"/><stop offset="1" stop-color="#fff"/></linearGradient><linearGradient id="I" gradientUnits="userSpaceOnUse"/><clipPath id="G"><path fill="#fff" d="M0 0h52.214v79.799H0z"/></clipPath><path id="H" d="M23.54 57.529l1.185 1.726 5.487 7.988H43.712l-11.131-16.45-.468-.691.429-.715 11.187-18.639H30.327l-4.038 7.202-1.055 1.882-1.18-1.805-4.755-7.279H5.788l10.425 15.763.456.688-.425.706L4.622 67.243H18.05l4.46-7.891 1.031-1.823z"/></defs></svg>
